Black Narrow — SC 0.ufo
<glyph name="a.sc" format="1">
  <advance width="1090"/>
  <outline>
    <contour>
      <point x="672" y="1292" type="move" name="top"/>
    </contour>
    <contour>
      <point x="876" y="-121" type="move" name="ogonek"/>
    </contour>
    <contour>
      <point x="469" y="-121" type="move" name="bottom"/>
    </contour>
    <contour>
      <point x="-130" y="97" type="line"/>
      <point x="-138" y="0" type="line"/>
      <point x="327" y="0" type="line"/>
      <point x="335" y="97" type="line"/>
      <point x="185" y="123" type="line"/>
      <point x="490" y="918" type="line"/>
      <point x="625" y="1218" type="line"/>
      <point x="564" y="1230" type="line"/>
      <point x="572" y="915" type="line"/>
      <point x="663" y="123" type="line"/>
      <point x="542" y="97" type="line"/>
      <point x="538" y="0" type="line"/>
      <point x="1126" y="0" type="line"/>
      <point x="1132" y="97" type="line"/>
      <point x="1006" y="125" type="line"/>
      <point x="822" y="1294" type="line"/>
      <point x="506" y="1294" type="line"/>
      <point x="-19" y="123" type="line"/>
    </contour>
    <contour>
      <point x="248" y="484" type="line"/>
      <point x="229" y="345" type="line"/>
      <point x="686" y="345" type="line"/>
      <point x="688" y="484" type="line"/>
    </contour>
  </outline>
</glyph>
<glyph name="ae.sc" format="1">
  <advance width="1638"/>
  <outline>
    <contour>
      <point x="921" y="1292" type="move" name="top"/>
    </contour>
    <contour>
      <point x="512" y="97" type="line"/>
      <point x="499" y="0" type="line"/>
      <point x="1548" y="0" type="line"/>
      <point x="1608" y="417" type="line"/>
      <point x="1410" y="428" type="line"/>
      <point x="1309" y="156" type="line"/>
      <point x="965" y="123" type="line"/>
      <point x="1032" y="601" type="line"/>
      <point x="1382" y="569" type="line"/>
      <point x="1417" y="784" type="line"/>
      <point x="1050" y="745" type="line"/>
      <point x="1115" y="1185" type="line"/>
      <point x="1354" y="1159" type="line"/>
      <point x="1381" y="964" type="line"/>
      <point x="1587" y="964" type="line"/>
      <point x="1626" y="1292" type="line"/>
      <point x="328" y="1292" type="line"/>
      <point x="311" y="1185" type="line"/>
      <point x="541" y="1159" type="line"/>
      <point x="-54" y="123" type="line"/>
      <point x="-178" y="97" type="line"/>
      <point x="-184" y="0" type="line"/>
      <point x="332" y="0" type="line"/>
      <point x="340" y="97" type="line"/>
      <point x="196" y="123" type="line"/>
      <point x="304" y="336" type="line"/>
      <point x="676" y="336" type="line"/>
      <point x="646" y="123" type="line"/>
    </contour>
    <contour>
      <point x="374" y="477" type="line"/>
      <point x="735" y="1189" type="line"/>
      <point x="791" y="1190" type="line"/>
      <point x="695" y="477" type="line"/>
    </contour>
  </outline>
</glyph>
<glyph name="b.sc" format="1">
  <advance width="1169"/>
  <outline>
    <contour>
      <point x="680" y="1292" type="move" name="top"/>
    </contour>
    <contour>
      <point x="539" y="0" type="move" name="bottom"/>
    </contour>
    <contour>
      <point x="518" y="-18" type="curve"/>
      <point x="923" y="-18"/>
      <point x="1112" y="104"/>
      <point x="1120" y="418" type="curve"/>
      <point x="1123" y="578"/>
      <point x="993" y="691"/>
      <point x="816" y="682" type="curve"/>
      <point x="1034" y="736"/>
      <point x="1137" y="836"/>
      <point x="1130" y="1032" type="curve"/>
      <point x="1126" y="1164"/>
      <point x="1072" y="1308"/>
      <point x="743" y="1308" type="curve"/>
      <point x="634" y="1308"/>
      <point x="540" y="1294"/>
      <point x="443" y="1292" type="curve"/>
      <point x="152" y="1292" type="line"/>
      <point x="139" y="1193" type="line"/>
      <point x="257" y="1171" type="line"/>
      <point x="115" y="123" type="line"/>
      <point x="5" y="97" type="line"/>
      <point x="-2" y="0" type="line"/>
      <point x="252" y="0" type="line" smooth="yes"/>
      <point x="328" y="0"/>
      <point x="438" y="-18"/>
    </contour>
    <contour>
      <point x="556" y="93" type="curve"/>
      <point x="499" y="93"/>
      <point x="371" y="117"/>
      <point x="385" y="135" type="curve"/>
      <point x="407" y="51" type="line"/>
      <point x="576" y="1256" type="line"/>
      <point x="525" y="1157" type="line"/>
      <point x="512" y="1187"/>
      <point x="626" y="1193"/>
      <point x="671" y="1193" type="curve"/>
      <point x="766" y="1193"/>
      <point x="825" y="1125"/>
      <point x="830" y="1002" type="curve"/>
      <point x="836" y="802"/>
      <point x="713" y="732"/>
      <point x="580" y="732" type="curve"/>
      <point x="538" y="732"/>
      <point x="514" y="732"/>
      <point x="474" y="732" type="curve"/>
      <point x="451" y="605" type="line"/>
      <point x="462" y="606"/>
      <point x="517" y="607"/>
      <point x="556" y="607" type="curve"/>
      <point x="725" y="607"/>
      <point x="779" y="540"/>
      <point x="784" y="387" type="curve"/>
      <point x="791" y="191"/>
      <point x="715" y="93"/>
    </contour>
  </outline>
</glyph>
<glyph name="c.sc" format="1">
  <advance width="1060"/>
  <outline>
    <contour>
      <point x="683" y="1292" type="move" name="top"/>
    </contour>
    <contour>
      <point x="554" y="0" type="move" name="bottom"/>
    </contour>
    <contour>
      <point x="557" y="-14" type="curve"/>
      <point x="808" y="-14"/>
      <point x="912" y="65"/>
      <point x="976" y="128" type="curve"/>
      <point x="1012" y="359" type="line"/>
      <point x="829" y="359" type="line"/>
      <point x="818" y="290"/>
      <point x="792" y="224"/>
      <point x="763" y="195" type="curve"/>
      <point x="696" y="131"/>
      <point x="633" y="136"/>
      <point x="604" y="136" type="curve"/>
      <point x="471" y="136"/>
      <point x="415" y="262"/>
      <point x="408" y="558" type="curve"/>
      <point x="404" y="842"/>
      <point x="501" y="1193"/>
      <point x="744" y="1193" type="curve"/>
      <point x="750" y="1193"/>
      <point x="768" y="1192"/>
      <point x="786" y="1186" type="curve"/>
      <point x="820" y="915" type="line"/>
      <point x="1057" y="915" type="line"/>
      <point x="1110" y="1264" type="line"/>
      <point x="1042" y="1264"/>
      <point x="982" y="1308"/>
      <point x="797" y="1308" type="curve"/>
      <point x="347" y="1308"/>
      <point x="60" y="1039"/>
      <point x="47" y="557" type="curve"/>
      <point x="39" y="237"/>
      <point x="178" y="-14"/>
    </contour>
  </outline>
</glyph>
<glyph name="d.sc" format="1">
  <advance width="1243"/>
  <outline>
    <contour>
      <point x="710" y="1294" type="move" name="top"/>
    </contour>
    <contour>
      <point x="497" y="0" type="move" name="bottom"/>
    </contour>
    <contour>
      <point x="501" y="-14" type="curve"/>
      <point x="1031" y="-10"/>
      <point x="1239" y="299"/>
      <point x="1249" y="765" type="curve"/>
      <point x="1257" y="1121"/>
      <point x="1069" y="1306"/>
      <point x="714" y="1306" type="curve"/>
      <point x="617" y="1306"/>
      <point x="509" y="1294"/>
      <point x="416" y="1292" type="curve"/>
      <point x="152" y="1292" type="line"/>
      <point x="142" y="1193" type="line"/>
      <point x="256" y="1171" type="line"/>
      <point x="114" y="123" type="line"/>
      <point x="-13" y="97" type="line"/>
      <point x="-25" y="0" type="line"/>
      <point x="300" y="0" type="line"/>
      <point x="346" y="0"/>
      <point x="426" y="-14"/>
    </contour>
    <contour>
      <point x="516" y="99" type="curve"/>
      <point x="473" y="99"/>
      <point x="420" y="116"/>
      <point x="395" y="144" type="curve"/>
      <point x="426" y="71" type="line"/>
      <point x="585" y="1235" type="line"/>
      <point x="546" y="1156" type="line"/>
      <point x="571" y="1169"/>
      <point x="586" y="1193"/>
      <point x="690" y="1193" type="curve"/>
      <point x="840" y="1193"/>
      <point x="907" y="1059"/>
      <point x="900" y="737" type="curve"/>
      <point x="894" y="465"/>
      <point x="799" y="96"/>
    </contour>
  </outline>
</glyph>
<glyph name="e.sc" format="1">
  <advance width="1097"/>
  <outline>
    <contour>
      <point x="654" y="1292" type="move" name="top"/>
    </contour>
    <contour>
      <point x="864" y="0" type="move" name="ogonek"/>
    </contour>
    <contour>
      <point x="500" y="0" type="move" name="bottom"/>
    </contour>
    <contour>
      <point x="1081" y="1292" type="line"/>
      <point x="153" y="1292" type="line"/>
      <point x="142" y="1192" type="line"/>
      <point x="259" y="1172" type="line"/>
      <point x="116" y="123" type="line"/>
      <point x="-13" y="97" type="line"/>
      <point x="-27" y="0" type="line"/>
      <point x="1010" y="0" type="line"/>
      <point x="1066" y="414" type="line"/>
      <point x="870" y="424" type="line"/>
      <point x="783" y="174" type="line"/>
      <point x="445" y="140" type="line"/>
      <point x="500" y="614" type="line"/>
      <point x="847" y="585" type="line"/>
      <point x="882" y="802" type="line"/>
      <point x="524" y="756" type="line"/>
      <point x="583" y="1184" type="line"/>
      <point x="820" y="1159" type="line"/>
      <point x="852" y="968" type="line"/>
      <point x="1045" y="968" type="line"/>
    </contour>
  </outline>
</glyph>
<glyph name="ezh.sc" format="1">
  <advance width="969"/>
  <outline>
    <contour>
      <point x="374" y="-10" type="curve"/>
      <point x="739" y="-10"/>
      <point x="921" y="200"/>
      <point x="926" y="454" type="curve"/>
      <point x="932" y="700"/>
      <point x="769" y="781"/>
      <point x="567" y="803" type="curve"/>
      <point x="456" y="689" type="line"/>
      <point x="967" y="1156" type="line"/>
      <point x="986" y="1292" type="line"/>
      <point x="167" y="1292" type="line"/>
      <point x="113" y="963" type="line"/>
      <point x="282" y="963" type="line"/>
      <point x="338" y="1108" type="line"/>
      <point x="682" y="1108" type="line"/>
      <point x="610" y="1023" type="line"/>
      <point x="320" y="699" type="line"/>
      <point x="374" y="629" type="line"/>
      <point x="387" y="628"/>
      <point x="401" y="629"/>
      <point x="408" y="629" type="curve"/>
      <point x="544" y="629"/>
      <point x="605" y="539"/>
      <point x="602" y="391" type="curve"/>
      <point x="599" y="244"/>
      <point x="493" y="123"/>
      <point x="403" y="123" type="curve"/>
      <point x="308" y="123"/>
      <point x="255" y="176"/>
      <point x="249" y="184" type="curve"/>
      <point x="213" y="385" type="line"/>
      <point x="75" y="385" type="line"/>
      <point x="12" y="56" type="line"/>
      <point x="59" y="48"/>
      <point x="157" y="-10"/>
    </contour>
  </outline>
</glyph>
<glyph name="f.sc" format="1">
  <advance width="1009"/>
  <outline>
    <contour>
      <point x="643" y="1292" type="move" name="top"/>
    </contour>
    <contour>
      <point x="4" y="97" type="line"/>
      <point x="-7" y="0" type="line"/>
      <point x="655" y="0" type="line"/>
      <point x="665" y="97" type="line"/>
      <point x="431" y="122" type="line"/>
      <point x="490" y="588" type="line"/>
      <point x="860" y="552" type="line"/>
      <point x="893" y="761" type="line"/>
      <point x="513" y="733" type="line"/>
      <point x="575" y="1183" type="line"/>
      <point x="822" y="1161" type="line"/>
      <point x="845" y="952" type="line"/>
      <point x="1047" y="952" type="line"/>
      <point x="1087" y="1292" type="line"/>
      <point x="151" y="1292" type="line"/>
      <point x="136" y="1192" type="line"/>
      <point x="255" y="1172" type="line"/>
      <point x="112" y="123" type="line"/>
    </contour>
  </outline>
</glyph>
<glyph name="g.sc" format="1">
  <advance width="1171"/>
  <outline>
    <contour>
      <point x="741" y="1292" type="move" name="top"/>
    </contour>
    <contour>
      <point x="534" y="0" type="move" name="bottom"/>
    </contour>
    <contour>
      <point x="531" y="-14" type="curve"/>
      <point x="689" y="-14"/>
      <point x="793" y="16"/>
      <point x="885" y="42" type="curve"/>
      <point x="940" y="56"/>
      <point x="1023" y="66"/>
      <point x="1051" y="70" type="curve"/>
      <point x="1128" y="647" type="line"/>
      <point x="661" y="647" type="line"/>
      <point x="642" y="511" type="line"/>
      <point x="787" y="497" type="line"/>
      <point x="743" y="136" type="line"/>
      <point x="700" y="127"/>
      <point x="661" y="126"/>
      <point x="592" y="126" type="curve"/>
      <point x="466" y="126"/>
      <point x="395" y="294"/>
      <point x="404" y="589" type="curve"/>
      <point x="412" y="932"/>
      <point x="484" y="1193"/>
      <point x="768" y="1193" type="curve"/>
      <point x="803" y="1193"/>
      <point x="849" y="1181"/>
      <point x="883" y="1160" type="curve"/>
      <point x="890" y="961" type="line"/>
      <point x="1113" y="961" type="line"/>
      <point x="1170" y="1250" type="line"/>
      <point x="1097" y="1250"/>
      <point x="1001" y="1308"/>
      <point x="761" y="1308" type="curve"/>
      <point x="287" y="1308"/>
      <point x="57" y="1008"/>
      <point x="61" y="532" type="curve"/>
      <point x="63" y="237"/>
      <point x="197" y="-14"/>
    </contour>
  </outline>
</glyph>
<glyph name="germandbls.sc" format="1">
  <advance width="1245"/>
  <outline>
    <contour>
      <point x="745" y="-20" type="curve"/>
      <point x="964" y="-20"/>
      <point x="1188" y="124"/>
      <point x="1193" y="396" type="curve"/>
      <point x="1197" y="628"/>
      <point x="1045" y="745"/>
      <point x="887" y="784" type="curve"/>
      <point x="1129" y="1064" type="line"/>
      <point x="1147" y="1186" type="line"/>
      <point x="1119" y="1238"/>
      <point x="1010" y="1317"/>
      <point x="772" y="1317" type="curve"/>
      <point x="420" y="1317"/>
      <point x="186" y="1164"/>
      <point x="133" y="792" type="curve"/>
      <point x="39" y="122" type="line"/>
      <point x="-62" y="96" type="line"/>
      <point x="-72" y="0" type="line"/>
      <point x="354" y="0" type="line"/>
      <point x="472" y="829" type="line" smooth="yes"/>
      <point x="500" y="1062"/>
      <point x="561" y="1206"/>
      <point x="744" y="1206" type="curve"/>
      <point x="832" y="1206"/>
      <point x="891" y="1140"/>
      <point x="901" y="1062" type="curve"/>
      <point x="658" y="742" type="line"/>
      <point x="647" y="671" type="line"/>
      <point x="826" y="588"/>
      <point x="864" y="456"/>
      <point x="862" y="334" type="curve"/>
      <point x="859" y="152"/>
      <point x="806" y="78"/>
      <point x="751" y="78" type="curve"/>
      <point x="704" y="78"/>
      <point x="688" y="100"/>
      <point x="675" y="144" type="curve"/>
      <point x="652" y="288" type="line"/>
      <point x="509" y="288" type="line"/>
      <point x="474" y="28" type="line"/>
      <point x="535" y="22"/>
      <point x="635" y="-20"/>
    </contour>
  </outline>
</glyph>
<glyph name="h.sc" format="1">
  <advance width="1359"/>
  <outline>
    <contour>
      <point x="792" y="1292" type="move" name="top"/>
    </contour>
    <contour>
      <point x="623" y="0" type="move" name="bottom"/>
    </contour>
    <contour>
      <point x="-1" y="96" type="line"/>
      <point x="-10" y="0" type="line"/>
      <point x="569" y="0" type="line"/>
      <point x="575" y="96" type="line"/>
      <point x="429" y="122" type="line"/>
      <point x="574" y="1172" type="line"/>
      <point x="728" y="1192" type="line"/>
      <point x="739" y="1292" type="line"/>
      <point x="152" y="1292" type="line"/>
      <point x="137" y="1192" type="line"/>
      <point x="252" y="1172" type="line"/>
      <point x="107" y="122" type="line"/>
    </contour>
    <contour>
      <point x="331" y="720" type="line"/>
      <point x="328" y="594" type="line"/>
      <point x="970" y="594" type="line"/>
      <point x="973" y="720" type="line"/>
    </contour>
    <contour>
      <point x="671" y="96" type="line"/>
      <point x="657" y="0" type="line"/>
      <point x="1260" y="0" type="line"/>
      <point x="1271" y="96" type="line"/>
      <point x="1155" y="122" type="line"/>
      <point x="1298" y="1172" type="line"/>
      <point x="1415" y="1192" type="line"/>
      <point x="1426" y="1292" type="line"/>
      <point x="841" y="1292" type="line"/>
      <point x="830" y="1192" type="line"/>
      <point x="974" y="1172" type="line"/>
      <point x="829" y="122" type="line"/>
    </contour>
  </outline>
</glyph>
<glyph name="i.sc" format="1">
  <advance width="635"/>
  <outline>
    <contour>
      <point x="453" y="1383" type="move" name="top"/>
    </contour>
    <contour>
      <point x="407" y="0" type="move" name="ogonek"/>
    </contour>
    <contour>
      <point x="251" y="0" type="move" name="bottom"/>
    </contour>
    <contour>
      <point x="-12" y="97" type="line"/>
      <point x="-26" y="0" type="line"/>
      <point x="568" y="0" type="line"/>
      <point x="573" y="97" type="line"/>
      <point x="432" y="123" type="line"/>
      <point x="575" y="1172" type="line"/>
      <point x="717" y="1192" type="line"/>
      <point x="728" y="1292" type="line"/>
      <point x="142" y="1292" type="line"/>
      <point x="133" y="1192" type="line"/>
      <point x="250" y="1172" type="line"/>
      <point x="108" y="123" type="line"/>
    </contour>
  </outline>
</glyph>
<glyph name="j.sc" format="1">
  <advance width="607"/>
  <outline>
    <contour>
      <point x="233" y="-142" type="move" name="btm"/>
    </contour>
    <contour>
      <point x="444" y="1292" type="move" name="top"/>
    </contour>
    <contour>
      <point x="569" y="1171" type="curve"/>
      <point x="677" y="1193" type="line"/>
      <point x="688" y="1292" type="line"/>
      <point x="150" y="1292" type="line"/>
      <point x="135" y="1193" type="line"/>
      <point x="247" y="1169" type="line"/>
      <point x="208" y="809"/>
      <point x="162" y="416"/>
      <point x="96" y="76" type="curve"/>
      <point x="75" y="-38"/>
      <point x="15" y="-126"/>
      <point x="-158" y="-188" type="curve"/>
      <point x="-112" y="-292" type="line"/>
      <point x="173" y="-268"/>
      <point x="342" y="-127"/>
      <point x="412" y="62" type="curve"/>
      <point x="442" y="138"/>
      <point x="504" y="668"/>
    </contour>
  </outline>
</glyph>
<glyph name="k.sc" format="1">
  <advance width="1249"/>
  <outline>
    <contour>
      <point x="800" y="1292" type="move" name="top"/>
    </contour>
    <contour>
      <point x="671" y="0" type="move" name="bottom"/>
    </contour>
    <contour>
      <point x="5" y="96" type="line"/>
      <point x="-8" y="0" type="line"/>
      <point x="566" y="0" type="line"/>
      <point x="576" y="96" type="line"/>
      <point x="433" y="122" type="line"/>
      <point x="577" y="1172" type="line"/>
      <point x="732" y="1192" type="line"/>
      <point x="743" y="1292" type="line"/>
      <point x="152" y="1292" type="line"/>
      <point x="140" y="1192" type="line"/>
      <point x="255" y="1172" type="line"/>
      <point x="109" y="122" type="line"/>
    </contour>
    <contour>
      <point x="465" y="594" type="line"/>
      <point x="452" y="420" type="line"/>
      <point x="649" y="621" type="line"/>
      <point x="812" y="779" type="line"/>
      <point x="1194" y="1172" type="line"/>
      <point x="1296" y="1192" type="line"/>
      <point x="1307" y="1292" type="line"/>
      <point x="864" y="1292" type="line"/>
      <point x="851" y="1194" type="line"/>
      <point x="986" y="1172" type="line"/>
    </contour>
    <contour>
      <point x="853" y="0" type="curve"/>
      <point x="1243" y="0" type="line"/>
      <point x="1253" y="98" type="line"/>
      <point x="1163" y="120" type="line"/>
      <point x="1119" y="146"/>
      <point x="1082" y="248"/>
      <point x="1014" y="406" type="curve"/>
      <point x="975" y="490"/>
      <point x="880" y="740"/>
      <point x="833" y="818" type="curve"/>
      <point x="608" y="630" type="line"/>
      <point x="660" y="494"/>
      <point x="719" y="258"/>
      <point x="756" y="144" type="curve"/>
      <point x="788" y="36"/>
      <point x="801" y="6"/>
    </contour>
  </outline>
</glyph>
<glyph name="l.sc" format="1">
  <advance width="1047"/>
  <outline>
    <contour>
      <point x="697" y="966" type="move" name="car"/>
    </contour>
    <contour>
      <point x="436" y="1292" type="move" name="top"/>
    </contour>
    <contour>
      <point x="478" y="0" type="move" name="bottom"/>
    </contour>
    <contour>
      <point x="1" y="96" type="line"/>
      <point x="-10" y="0" type="line"/>
      <point x="941" y="0" type="line"/>
      <point x="1031" y="520" type="line"/>
      <point x="868" y="540" type="line"/>
      <point x="678" y="136" type="line"/>
      <point x="430" y="116" type="line"/>
      <point x="574" y="1172" type="line"/>
      <point x="725" y="1192" type="line"/>
      <point x="736" y="1292" type="line"/>
      <point x="152" y="1292" type="line"/>
      <point x="137" y="1192" type="line"/>
      <point x="254" y="1172" type="line"/>
      <point x="109" y="122" type="line"/>
    </contour>
  </outline>
</glyph>
<glyph name="m.sc" format="1">
  <advance width="1654"/>
  <outline>
    <contour>
      <point x="953" y="1292" type="move" name="top"/>
    </contour>
    <contour>
      <point x="712" y="0" type="move" name="bottom"/>
    </contour>
    <contour>
      <point x="-48" y="96" type="line"/>
      <point x="-59" y="0" type="line"/>
      <point x="455" y="0" type="line"/>
      <point x="464" y="96" type="line"/>
      <point x="280" y="122" type="line"/>
      <point x="435" y="845" type="line"/>
      <point x="507" y="1167" type="line"/>
      <point x="546" y="853" type="line"/>
      <point x="635" y="-16" type="line"/>
      <point x="788" y="-2" type="line"/>
      <point x="1137" y="875" type="line"/>
      <point x="1251" y="1168" type="line"/>
      <point x="1233" y="833" type="line"/>
      <point x="1177" y="123" type="line"/>
      <point x="1026" y="101" type="line"/>
      <point x="1019" y="0" type="line"/>
      <point x="1630" y="0" type="line"/>
      <point x="1637" y="97" type="line"/>
      <point x="1492" y="123" type="line"/>
      <point x="1534" y="1171" type="line"/>
      <point x="1674" y="1193" type="line"/>
      <point x="1687" y="1292" type="line"/>
      <point x="1145" y="1292" type="line"/>
      <point x="908" y="622" type="line"/>
      <point x="872" y="486" type="line"/>
      <point x="859" y="620" type="line"/>
      <point x="802" y="1292" type="line"/>
      <point x="190" y="1292" type="line"/>
      <point x="175" y="1193" type="line"/>
      <point x="330" y="1171" type="line"/>
      <point x="78" y="122" type="line"/>
    </contour>
  </outline>
</glyph>
<glyph name="n.sc" format="1">
  <advance width="1280"/>
  <outline>
    <contour>
      <point x="797" y="1290" type="move" name="top"/>
    </contour>
    <contour>
      <point x="601" y="0" type="move" name="bottom"/>
    </contour>
    <contour>
      <point x="-1" y="96" type="line"/>
      <point x="-8" y="0" type="line"/>
      <point x="455" y="0" type="line"/>
      <point x="466" y="96" type="line"/>
      <point x="308" y="122" type="line"/>
      <point x="430" y="1201" type="line"/>
      <point x="373" y="1194" type="line"/>
      <point x="475" y="844" type="line"/>
      <point x="743" y="0" type="line"/>
      <point x="1072" y="0" type="line"/>
      <point x="1257" y="1172" type="line"/>
      <point x="1366" y="1192" type="line"/>
      <point x="1376" y="1292" type="line"/>
      <point x="953" y="1292" type="line"/>
      <point x="944" y="1192" type="line"/>
      <point x="1078" y="1172" type="line"/>
      <point x="940" y="154" type="line"/>
      <point x="1005" y="162" type="line"/>
      <point x="900" y="486" type="line"/>
      <point x="651" y="1292" type="line"/>
      <point x="152" y="1292" type="line"/>
      <point x="137" y="1192" type="line"/>
      <point x="273" y="1172" type="line"/>
      <point x="124" y="122" type="line"/>
    </contour>
  </outline>
</glyph>
<glyph name="o.sc" format="1">
  <advance width="1213"/>
  <outline>
    <contour>
      <point x="162" y="1292" type="move" name="topleft"/>
    </contour>
    <contour>
      <point x="630" y="648" type="move" name="center"/>
    </contour>
    <contour>
      <point x="541" y="0" type="move" name="bottom"/>
    </contour>
    <contour>
      <point x="722" y="1292" type="move" name="top"/>
    </contour>
    <contour>
      <point x="936" y="1264" type="move" name="topright"/>
    </contour>
    <contour>
      <point x="727" y="18" type="move" name="ogonek"/>
    </contour>
    <contour>
      <point x="533" y="-18" type="curve"/>
      <point x="1011" y="-18"/>
      <point x="1180" y="378"/>
      <point x="1191" y="744" type="curve"/>
      <point x="1200" y="1048"/>
      <point x="1077" y="1310"/>
      <point x="717" y="1310" type="curve"/>
      <point x="260" y="1310"/>
      <point x="67" y="932"/>
      <point x="58" y="558" type="curve"/>
      <point x="49" y="226"/>
      <point x="180" y="-18"/>
    </contour>
    <contour>
      <point x="556" y="94" type="curve"/>
      <point x="449" y="94"/>
      <point x="401" y="250"/>
      <point x="409" y="570" type="curve"/>
      <point x="418" y="878"/>
      <point x="510" y="1198"/>
      <point x="692" y="1198" type="curve"/>
      <point x="802" y="1198"/>
      <point x="849" y="1050"/>
      <point x="840" y="724" type="curve"/>
      <point x="830" y="380"/>
      <point x="754" y="94"/>
    </contour>
  </outline>
</glyph>
<glyph name="oe.sc" format="1">
  <advance width="1915"/>
  <outline>
    <contour>
      <point x="538" y="-18" type="curve"/>
      <point x="715" y="-18"/>
      <point x="850" y="30"/>
      <point x="941" y="168" type="curve"/>
      <point x="914" y="0" type="line"/>
      <point x="1825" y="0" type="line"/>
      <point x="1885" y="417" type="line"/>
      <point x="1687" y="428" type="line"/>
      <point x="1593" y="168" type="line"/>
      <point x="1234" y="136" type="line"/>
      <point x="1294" y="594" type="line"/>
      <point x="1624" y="562" type="line"/>
      <point x="1664" y="796" type="line"/>
      <point x="1317" y="756" type="line"/>
      <point x="1375" y="1184" type="line"/>
      <point x="1637" y="1159" type="line"/>
      <point x="1671" y="964" type="line"/>
      <point x="1866" y="964" type="line"/>
      <point x="1902" y="1292" type="line"/>
      <point x="1085" y="1292" type="line"/>
      <point x="1059" y="1110" type="line"/>
      <point x="972" y="1236"/>
      <point x="905" y="1310"/>
      <point x="722" y="1310" type="curve"/>
      <point x="253" y="1310"/>
      <point x="68" y="929"/>
      <point x="57" y="555" type="curve"/>
      <point x="49" y="236"/>
      <point x="177" y="-18"/>
    </contour>
    <contour>
      <point x="564" y="93" type="curve"/>
      <point x="447" y="93"/>
      <point x="391" y="251"/>
      <point x="400" y="559" type="curve"/>
      <point x="408" y="874"/>
      <point x="503" y="1199"/>
      <point x="700" y="1199" type="curve"/>
      <point x="823" y="1199"/>
      <point x="876" y="1045"/>
      <point x="867" y="727" type="curve"/>
      <point x="857" y="377"/>
      <point x="773" y="93"/>
    </contour>
  </outline>
</glyph>
<glyph name="p.sc" format="1">
  <advance width="1108"/>
  <outline>
    <contour>
      <point x="671" y="1292" type="move" name="top"/>
    </contour>
    <contour>
      <point x="-1" y="96" type="line"/>
      <point x="-10" y="0" type="line"/>
      <point x="637" y="0" type="line"/>
      <point x="644" y="96" type="line"/>
      <point x="428" y="122" type="line"/>
      <point x="583" y="1249" type="line"/>
      <point x="488" y="1151" type="line"/>
      <point x="527" y="1192"/>
      <point x="581" y="1192"/>
      <point x="622" y="1192" type="curve"/>
      <point x="754" y="1192"/>
      <point x="825" y="1108"/>
      <point x="821" y="948" type="curve"/>
      <point x="816" y="720"/>
      <point x="715" y="544"/>
      <point x="565" y="544" type="curve"/>
      <point x="548" y="544"/>
      <point x="527" y="544"/>
      <point x="462" y="556" type="curve"/>
      <point x="453" y="435" type="line"/>
      <point x="485" y="429"/>
      <point x="520" y="426"/>
      <point x="551" y="426" type="curve"/>
      <point x="930" y="426"/>
      <point x="1159" y="618"/>
      <point x="1150" y="956" type="curve"/>
      <point x="1144" y="1176"/>
      <point x="1021" y="1306"/>
      <point x="683" y="1306" type="curve"/>
      <point x="601" y="1306"/>
      <point x="511" y="1292"/>
      <point x="411" y="1292" type="curve"/>
      <point x="152" y="1292" type="line"/>
      <point x="136" y="1192" type="line"/>
      <point x="251" y="1172" type="line"/>
      <point x="106" y="122" type="line"/>
    </contour>
  </outline>
</glyph>
<glyph name="q.sc" format="1">
  <advance width="1214"/>
  <outline>
    <contour>
      <point x="814" y="-388" type="curve"/>
      <point x="996" y="-388"/>
      <point x="1084" y="-324"/>
      <point x="1129" y="-288" type="curve"/>
      <point x="1129" y="-114" type="line"/>
      <point x="1058" y="-138"/>
      <point x="956" y="-146"/>
      <point x="904" y="-146" type="curve"/>
      <point x="792" y="-146"/>
      <point x="692" y="-131"/>
      <point x="696" y="4" type="curve"/>
      <point x="552" y="-12" type="line"/>
      <point x="529" y="-104"/>
      <point x="528" y="-187"/>
      <point x="550" y="-247" type="curve"/>
      <point x="584" y="-338"/>
      <point x="670" y="-388"/>
    </contour>
    <contour>
      <point x="533" y="-18" type="curve"/>
      <point x="1011" y="-18"/>
      <point x="1180" y="378"/>
      <point x="1191" y="744" type="curve"/>
      <point x="1200" y="1048"/>
      <point x="1077" y="1310"/>
      <point x="717" y="1310" type="curve"/>
      <point x="260" y="1310"/>
      <point x="67" y="932"/>
      <point x="58" y="558" type="curve"/>
      <point x="49" y="226"/>
      <point x="180" y="-18"/>
    </contour>
    <contour>
      <point x="556" y="94" type="curve"/>
      <point x="449" y="94"/>
      <point x="401" y="250"/>
      <point x="409" y="570" type="curve"/>
      <point x="418" y="878"/>
      <point x="510" y="1198"/>
      <point x="692" y="1198" type="curve"/>
      <point x="802" y="1198"/>
      <point x="849" y="1050"/>
      <point x="840" y="724" type="curve"/>
      <point x="830" y="380"/>
      <point x="754" y="94"/>
    </contour>
  </outline>
</glyph>
<glyph name="r.sc" format="1">
  <advance width="1206"/>
  <outline>
    <contour>
      <point x="655" y="1292" type="move" name="top"/>
    </contour>
    <contour>
      <point x="600" y="0" type="move" name="bottom"/>
    </contour>
    <contour>
      <point x="0" y="96" type="line"/>
      <point x="-10" y="0" type="line"/>
      <point x="566" y="0" type="line"/>
      <point x="574" y="96" type="line"/>
      <point x="426" y="122" type="line"/>
      <point x="580" y="1264" type="line"/>
      <point x="435" y="1147" type="line"/>
      <point x="530" y="1192"/>
      <point x="608" y="1192"/>
      <point x="635" y="1192" type="curve"/>
      <point x="740" y="1192"/>
      <point x="810" y="1130"/>
      <point x="807" y="988" type="curve"/>
      <point x="802" y="790"/>
      <point x="731" y="684"/>
      <point x="590" y="684" type="curve"/>
      <point x="552" y="684"/>
      <point x="514" y="685"/>
      <point x="477" y="685" type="curve"/>
      <point x="451" y="560" type="line"/>
      <point x="490" y="560"/>
      <point x="530" y="560"/>
      <point x="569" y="560" type="curve"/>
      <point x="635" y="560"/>
      <point x="666" y="304"/>
      <point x="720" y="148" type="curve"/>
      <point x="732" y="90"/>
      <point x="765" y="0"/>
      <point x="805" y="0" type="curve"/>
      <point x="1158" y="0" type="line"/>
      <point x="1168" y="96" type="line"/>
      <point x="1072" y="98"/>
      <point x="1034" y="184"/>
      <point x="982" y="324" type="curve"/>
      <point x="946" y="409"/>
      <point x="875" y="648"/>
      <point x="836" y="613" type="curve"/>
      <point x="764" y="572" type="line"/>
      <point x="990" y="618"/>
      <point x="1120" y="763"/>
      <point x="1124" y="968" type="curve"/>
      <point x="1129" y="1192"/>
      <point x="1016" y="1306"/>
      <point x="703" y="1306" type="curve"/>
      <point x="557" y="1306"/>
      <point x="520" y="1292"/>
      <point x="404" y="1292" type="curve"/>
      <point x="152" y="1292" type="line"/>
      <point x="141" y="1192" type="line"/>
      <point x="254" y="1172" type="line"/>
      <point x="110" y="122" type="line"/>
    </contour>
  </outline>
</glyph>
<glyph name="s.sc" format="1">
  <advance width="947"/>
  <outline>
    <contour>
      <point x="609" y="1292" type="move" name="top"/>
    </contour>
    <contour>
      <point x="406" y="0" type="move" name="bottom"/>
    </contour>
    <contour>
      <point x="409" y="-20" type="curve"/>
      <point x="736" y="-20"/>
      <point x="879" y="178"/>
      <point x="887" y="376" type="curve"/>
      <point x="894" y="548"/>
      <point x="782" y="675"/>
      <point x="645" y="766" type="curve"/>
      <point x="482" y="875"/>
      <point x="420" y="942"/>
      <point x="423" y="1061" type="curve"/>
      <point x="424" y="1136"/>
      <point x="457" y="1200"/>
      <point x="567" y="1200" type="curve"/>
      <point x="642" y="1200"/>
      <point x="675" y="1176"/>
      <point x="691" y="1148" type="curve"/>
      <point x="716" y="976" type="line"/>
      <point x="891" y="976" type="line"/>
      <point x="940" y="1234" type="line"/>
      <point x="886" y="1266"/>
      <point x="789" y="1308"/>
      <point x="600" y="1308" type="curve"/>
      <point x="341" y="1308"/>
      <point x="146" y="1180"/>
      <point x="135" y="925" type="curve"/>
      <point x="128" y="776"/>
      <point x="196" y="646"/>
      <point x="383" y="524" type="curve"/>
      <point x="549" y="413"/>
      <point x="590" y="348"/>
      <point x="587" y="251" type="curve"/>
      <point x="587" y="172"/>
      <point x="554" y="97"/>
      <point x="401" y="96" type="curve"/>
      <point x="320" y="97"/>
      <point x="288" y="126"/>
      <point x="255" y="156" type="curve"/>
      <point x="249" y="350" type="line"/>
      <point x="57" y="350" type="line"/>
      <point x="5" y="72" type="line"/>
      <point x="40" y="42"/>
      <point x="209" y="-20"/>
    </contour>
  </outline>
</glyph>
<glyph name="schwa.sc" format="1">
  <advance width="1128"/>
  <outline>
    <contour>
      <point x="475" y="-20" type="curve"/>
      <point x="789" y="-20"/>
      <point x="1059" y="314"/>
      <point x="1069" y="772" type="curve"/>
      <point x="1077" y="1100"/>
      <point x="900" y="1306"/>
      <point x="650" y="1306" type="curve"/>
      <point x="330" y="1306"/>
      <point x="280" y="1226"/>
      <point x="196" y="1228" type="curve"/>
      <point x="158" y="936" type="line"/>
      <point x="328" y="936" type="line"/>
      <point x="414" y="1119" type="line" smooth="yes"/>
      <point x="436" y="1174"/>
      <point x="463" y="1205"/>
      <point x="548" y="1205" type="curve"/>
      <point x="722" y="1205"/>
      <point x="759" y="971"/>
      <point x="741" y="663" type="curve"/>
      <point x="741" y="664"/>
      <point x="740" y="665"/>
      <point x="739" y="664" type="curve"/>
      <point x="103" y="664" type="line"/>
      <point x="87" y="618"/>
      <point x="62" y="516"/>
      <point x="60" y="416" type="curve"/>
      <point x="54" y="144"/>
      <point x="208" y="-20"/>
    </contour>
    <contour>
      <point x="511" y="103" type="curve"/>
      <point x="409" y="103"/>
      <point x="370" y="189"/>
      <point x="374" y="382" type="curve"/>
      <point x="375" y="439"/>
      <point x="384" y="475"/>
      <point x="398" y="537" type="curve"/>
      <point x="727" y="537" type="line"/>
      <point x="690" y="195"/>
      <point x="601" y="103"/>
    </contour>
  </outline>
</glyph>
<glyph name="t.sc" format="1">
  <advance width="1209"/>
  <outline>
    <contour>
      <point x="725" y="1292" type="move" name="top"/>
    </contour>
    <contour>
      <point x="557" y="0" type="move" name="bottom"/>
    </contour>
    <contour>
      <point x="192" y="116" type="line"/>
      <point x="169" y="0" type="line"/>
      <point x="950" y="0" type="line"/>
      <point x="970" y="116" type="line"/>
      <point x="723" y="142" type="line"/>
      <point x="870" y="1185" type="line"/>
      <point x="1034" y="1161" type="line"/>
      <point x="1053" y="770" type="line"/>
      <point x="1217" y="770" type="line"/>
      <point x="1295" y="1292" type="line"/>
      <point x="151" y="1292" type="line"/>
      <point x="63" y="770" type="line"/>
      <point x="232" y="770" type="line"/>
      <point x="385" y="1161" type="line"/>
      <point x="549" y="1184" type="line"/>
      <point x="411" y="142" type="line"/>
    </contour>
  </outline>
</glyph>
<glyph name="u.sc" format="1">
  <advance width="1194"/>
  <outline>
    <contour>
      <point x="760" y="1292" type="move" name="top"/>
    </contour>
    <contour>
      <point x="723" y="16" type="move" name="ogonek"/>
    </contour>
    <contour>
      <point x="1275" y="1292" type="move" name="topright"/>
    </contour>
    <contour>
      <point x="595" y="0" type="move" name="bottom"/>
    </contour>
    <contour>
      <point x="580" y="-18" type="curve"/>
      <point x="921" y="-18"/>
      <point x="1059" y="175"/>
      <point x="1105" y="532" type="curve"/>
      <point x="1188" y="1171" type="line"/>
      <point x="1291" y="1195" type="line"/>
      <point x="1304" y="1292" type="line"/>
      <point x="920" y="1292" type="line"/>
      <point x="910" y="1195" type="line"/>
      <point x="1029" y="1171" type="line"/>
      <point x="940" y="532" type="line" smooth="yes"/>
      <point x="906" y="281"/>
      <point x="843" y="95"/>
      <point x="640" y="95" type="curve"/>
      <point x="449" y="95"/>
      <point x="429" y="276"/>
      <point x="463" y="532" type="curve"/>
      <point x="547" y="1171" type="line"/>
      <point x="714" y="1195" type="line"/>
      <point x="726" y="1292" type="line"/>
      <point x="120" y="1292" type="line"/>
      <point x="109" y="1193" type="line"/>
      <point x="225" y="1171" type="line"/>
      <point x="138" y="504" type="line" smooth="yes"/>
      <point x="92" y="150"/>
      <point x="249" y="-18"/>
    </contour>
  </outline>
</glyph>
<glyph name="v.sc" format="1">
  <advance width="1010"/>
  <outline>
    <contour>
      <point x="810" y="1444" type="move" name="top"/>
    </contour>
    <contour>
      <point x="85" y="1171" type="line"/>
      <point x="251" y="-6" type="line"/>
      <point x="525" y="-8" type="line"/>
      <point x="1063" y="1171" type="line"/>
      <point x="1193" y="1193" type="line"/>
      <point x="1213" y="1292" type="line"/>
      <point x="752" y="1292" type="line"/>
      <point x="742" y="1193" type="line"/>
      <point x="889" y="1171" type="line"/>
      <point x="564" y="446" type="line"/>
      <point x="417" y="82" type="line"/>
      <point x="481" y="71" type="line"/>
      <point x="460" y="446" type="line"/>
      <point x="389" y="1172" type="line"/>
      <point x="516" y="1192" type="line"/>
      <point x="525" y="1292" type="line"/>
      <point x="-12" y="1292" type="line"/>
      <point x="-26" y="1195" type="line"/>
    </contour>
  </outline>
</glyph>
<glyph name="w.sc" format="1">
  <advance width="1603"/>
  <outline>
    <contour>
      <point x="983" y="1292" type="move" name="top"/>
    </contour>
    <contour>
      <point x="748" y="0" type="move" name="bottom"/>
    </contour>
    <contour>
      <point x="90" y="1169" type="line"/>
      <point x="247" y="-8" type="line"/>
      <point x="523" y="-8" type="line"/>
      <point x="908" y="911" type="line"/>
      <point x="878" y="1202" type="line"/>
      <point x="562" y="460" type="line"/>
      <point x="418" y="128" type="line"/>
      <point x="487" y="117" type="line"/>
      <point x="462" y="448" type="line"/>
      <point x="399" y="1166" type="line"/>
      <point x="517" y="1192" type="line"/>
      <point x="525" y="1292" type="line"/>
      <point x="-5" y="1292" type="line"/>
      <point x="-17" y="1195" type="line"/>
    </contour>
    <contour>
      <point x="795" y="1169" type="line"/>
      <point x="894" y="-8" type="line"/>
      <point x="1173" y="-8" type="line"/>
      <point x="1714" y="1171" type="line"/>
      <point x="1846" y="1195" type="line"/>
      <point x="1855" y="1292" type="line"/>
      <point x="1385" y="1292" type="line"/>
      <point x="1376" y="1192" type="line"/>
      <point x="1533" y="1169" type="line"/>
      <point x="1236" y="455" type="line"/>
      <point x="1080" y="131" type="line"/>
      <point x="1145" y="116" type="line"/>
      <point x="1140" y="448" type="line"/>
      <point x="1084" y="1170" type="line"/>
      <point x="1216" y="1192" type="line"/>
      <point x="1222" y="1292" type="line"/>
      <point x="671" y="1292" type="line"/>
      <point x="662" y="1195" type="line"/>
    </contour>
  </outline>
</glyph>
<glyph name="x.sc" format="1">
  <advance width="1120"/>
  <outline>
    <contour>
      <point x="-55" y="97" type="line"/>
      <point x="-66" y="0" type="line"/>
      <point x="365" y="0" type="line"/>
      <point x="374" y="97" type="line"/>
      <point x="259" y="123" type="line"/>
      <point x="491" y="478" type="line"/>
      <point x="737" y="679" type="line"/>
      <point x="1119" y="1171" type="line"/>
      <point x="1227" y="1193" type="line"/>
      <point x="1234" y="1292" type="line"/>
      <point x="807" y="1292" type="line"/>
      <point x="802" y="1193" type="line"/>
      <point x="899" y="1171" type="line"/>
      <point x="675" y="816" type="line"/>
      <point x="429" y="625" type="line"/>
      <point x="31" y="123" type="line"/>
    </contour>
    <contour>
      <point x="498" y="97" type="line"/>
      <point x="491" y="0" type="line"/>
      <point x="1076" y="0" type="line"/>
      <point x="1088" y="97" type="line"/>
      <point x="995" y="123" type="line"/>
      <point x="737" y="679" type="line"/>
      <point x="675" y="816" type="line"/>
      <point x="560" y="1171" type="line"/>
      <point x="670" y="1195" type="line"/>
      <point x="678" y="1292" type="line"/>
      <point x="116" y="1292" type="line"/>
      <point x="107" y="1193" type="line"/>
      <point x="193" y="1171" type="line"/>
      <point x="429" y="625" type="line"/>
      <point x="491" y="478" type="line"/>
      <point x="608" y="123" type="line"/>
    </contour>
  </outline>
</glyph>
<glyph name="y.sc" format="1">
  <advance width="1096"/>
  <outline>
    <contour>
      <point x="162" y="1292" type="move" name="topleft"/>
    </contour>
    <contour>
      <point x="709" y="1292" type="move" name="top"/>
    </contour>
    <contour>
      <point x="499" y="0" type="move" name="bottom"/>
    </contour>
    <contour>
      <point x="156" y="97" type="line"/>
      <point x="144" y="0" type="line"/>
      <point x="856" y="0" type="line"/>
      <point x="865" y="97" type="line"/>
      <point x="664" y="123" type="line"/>
      <point x="736" y="654" type="line"/>
      <point x="638" y="405" type="line"/>
      <point x="1133" y="1171" type="line"/>
      <point x="1242" y="1193" type="line"/>
      <point x="1258" y="1292" type="line"/>
      <point x="803" y="1292" type="line"/>
      <point x="794" y="1193" type="line"/>
      <point x="926" y="1171" type="line"/>
      <point x="695" y="760" type="line"/>
      <point x="581" y="540" type="line"/>
      <point x="688" y="530" type="line"/>
      <point x="611" y="788" type="line"/>
      <point x="504" y="1171" type="line"/>
      <point x="639" y="1193" type="line"/>
      <point x="653" y="1292" type="line"/>
      <point x="43" y="1292" type="line"/>
      <point x="31" y="1193" type="line"/>
      <point x="138" y="1171" type="line"/>
      <point x="443" y="393" type="line"/>
      <point x="408" y="654" type="line"/>
      <point x="340" y="123" type="line"/>
    </contour>
  </outline>
</glyph>
<glyph name="z.sc" format="1">
  <advance width="993"/>
  <outline>
    <contour>
      <point x="607" y="1292" type="move" name="top"/>
    </contour>
    <contour>
      <point x="427" y="0" type="move" name="bottom"/>
    </contour>
    <contour>
      <point x="-55" y="78" type="line"/>
      <point x="-26" y="0" type="line"/>
      <point x="892" y="0" type="line"/>
      <point x="977" y="386" type="line"/>
      <point x="821" y="431" type="line"/>
      <point x="645" y="146" type="line"/>
      <point x="308" y="127" type="line"/>
      <point x="392" y="193" type="line"/>
      <point x="1077" y="1216" type="line"/>
      <point x="1051" y="1292" type="line"/>
      <point x="197" y="1292" type="line"/>
      <point x="143" y="949" type="line"/>
      <point x="300" y="930" type="line"/>
      <point x="427" y="1159" type="line"/>
      <point x="735" y="1179" type="line"/>
      <point x="647" y="1118" type="line"/>
    </contour>
  </outline>
</glyph>
